<svg xmlns="http://www.w3.org/2000/svg" viewBox="0 0 297.4 57.3"><defs><style>.cls-1{fill:#0d3f7a;}.cls-2{fill:#00b5d1;}</style></defs><title>Asset 1</title><g id="Layer_2" data-name="Layer 2"><g id="Layer_1-2" data-name="Layer 1"><path class="cls-1" d="M14.7,42.3C9.1,51.9,5.9,55,.7,56.4v.9H14.6c9.5,0,14.6-3.8,21.2-15L58.4,4a2,2,0,0,0-1.8-3H39.1Z"/><path class="cls-2" d="M0,1v.9C4,3.4,7.4,6.4,9.5,13.7l2.8,9a1.3,1.3,0,0,0,2.5.3L26.2,4a2,2,0,0,0-1.8-3Z"/><path class="cls-1" d="M106.8,1H89.4V33.4c0,9.6-5.5,15.8-13.4,17.1v.9H91a17.9,17.9,0,0,0,17.9-17.9V3A2,2,0,0,0,106.8,1Z"/><path class="cls-2" d="M77.3,1H60.7v.9h0a1.4,1.4,0,0,1,1.4,1.4V33.5a8.6,8.6,0,1,0,17.2.2V3A2,2,0,0,0,77.3,1Z"/><path class="cls-1" d="M146.7,1.8c1.1,0,1.6.6,1.6,1.9v.8h-7.2A9.6,9.6,0,0,0,133.3,1c-5.5,0-9.4,3.5-9.4,7.9s3.9,8,9.4,8a9.4,9.4,0,0,0,7.7-3.4h7.3v3.6h5.6V1h-7.2ZM133.3,14.1c-2.5,0-3.8-2.5-3.8-5.1s1.4-5.1,3.8-5.1,3.8,2.4,3.8,5.1-1.4,5.1-3.8,5.1m15-3.5h-5.9a8.8,8.8,0,0,0,.2-1.7,7.6,7.6,0,0,0-.1-1.5h5.8Zm-5.2,7.1c-6.3,0-10.4,3.6-10.4,8s4.1,8,10.4,8,10.5-3.6,10.5-8-4.1-8-10.5-8m0,13.1a4.8,4.8,0,0,1-4.8-5.1,4.9,4.9,0,1,1,9.7,0,4.9,4.9,0,0,1-4.9,5.1"/><path class="cls-1" d="M164.4,19.7c1.1,0,1.6.6,1.6,1.9v7.5a3.4,3.4,0,0,0,3.4,3.4h18.2V18.9H164.4Zm7.2,2.1h10.5v7.7H171.6Z"/><path class="cls-1" d="M192.6,6.5h-5V1h-7.2v.8c1.2,0,1.7.6,1.7,1.9v8.4H166.4V1.7h-7.2v.9c1.1,0,1.6.6,1.6,1.9v7.1a3.4,3.4,0,0,0,3.4,3.4h17.9v2.1h5.5V9.4h5Z"/><polygon class="cls-1" points="235.1 23.5 254.1 23.5 254.1 32.5 259.6 32.5 259.6 20.6 235.1 20.6 235.1 23.5"/><path class="cls-1" d="M249.9,11.1a6.3,6.3,0,0,0-1.8-4.5h3V3.8h-7V0h-7.2V.9c1.1,0,1.6.6,1.6,1.8V3.8h-7V6.6h3.1a6.4,6.4,0,0,0-1.9,4.5c0,4,3.6,7.3,8.6,7.3S249.9,15.1,249.9,11.1Zm-11.9.1c0-2.4,1.2-4.3,3.3-4.3s3.3,1.9,3.3,4.3-1.1,4.3-3.3,4.3S238,13.6,238,11.2Z"/><path class="cls-1" d="M264.6,7.9h-5V1h-7.2v.8c1.2,0,1.7.6,1.7,1.9V18.5h5.5V10.8h5Z"/><path class="cls-1" d="M218.6,1v.8c1.1,0,1.6.6,1.6,1.9V9.5h-3V1h-6.8v.8c1.1,0,1.6.6,1.6,1.9V19h-9.6V5.3h6.3v-3H195.2v.9c1.1,0,1.6.6,1.6,1.8V18.5a3.4,3.4,0,0,0,3.4,3.4H212V32.5h5.2V12.4h3V32.5h5.3V1Z"/><polygon class="cls-1" points="289.1 24.7 294.6 24.7 294.6 2.3 269.5 2.3 269.5 5.2 269.5 5.2 289.1 5.2 289.1 24.7"/><path class="cls-1" d="M285.8,27.3V13.5H279v.9c1.1,0,1.6.6,1.6,1.8V27.3H277V13.5h-6.8v.9c1.1,0,1.6.6,1.6,1.8V27.3h-5.9v3h31.5v-3Z"/><path class="cls-1" d="M258.3,49.4a4.9,4.9,0,0,1-2.4.7c-2.2,0-2.8-1.6-2.9-3.4h5.6v-.5c0-1.9-.6-4.5-3.5-4.5s-4.2,2.4-4.3,4.9,1.6,5,4.6,5a4.8,4.8,0,0,0,2.9-.8Zm-5.2-4c.2-1.4.6-2.4,1.9-2.4s1.5.7,1.5,2.4Z"/><path class="cls-1" d="M266,41.8a3.5,3.5,0,0,0-2.7,1.4V41.9H260v1.3h1.3v7H260v1.2h4.6V50.2h-1.3V44.7a2.5,2.5,0,0,1,1.8-1.1h.3v1h1.4V42Z"/><path class="cls-1" d="M268,48.5h1.5v1.2a2.4,2.4,0,0,0,1.9.7c.9,0,1.6-.5,1.6-1.3s-.4-1-1.3-1.3l-.9-.4c-1.7-.6-2.7-1.8-2.7-3.1s1.4-2.6,3.3-2.6a6.9,6.9,0,0,1,3,.8v2.1h-1.5V43.5a1.9,1.9,0,0,0-1.5-.5c-.8,0-1.4.4-1.4,1s.7,1.2,1.9,1.7l.7.3c1.4.6,2.4,1.3,2.4,2.7s-1.3,2.9-3.7,2.9a6.3,6.3,0,0,1-3.3-.8Z"/><path class="cls-1" d="M286.5,43.2V41.9h-2.3V39.8l-2,.5v1.6h-1.3v1.3h1.3v5.2c0,2.2,1,3.2,2.7,3.2s1.4-.1,1.6-.4V50a1.9,1.9,0,0,1-1.1.3c-.8,0-1.2-.6-1.2-1.7V43.2Z"/><polygon class="cls-1" points="288.9 54.8 291.6 51.2 288.3 43.2 287.5 43.2 287.5 41.9 291.7 41.9 291.7 43.2 290.6 43.2 292.8 48.7 295.2 43.2 294.1 43.2 294.1 41.9 297.4 41.9 297.4 43.2 296.6 43.2 291.4 54.8 288.9 54.8"/><path class="cls-1" d="M224,38.6h-4.1v1.3h1.2V47c0,2.2-.8,3.4-2.7,3.4s-2.7-1.2-2.7-3.4V39.9h1.2V38.6h-4.6v1.3h1.3V47c0,2.8,1.4,4.6,4.6,4.6s4.5-1.8,4.5-4.6V39.9H224Z"/><polygon class="cls-1" points="247.2 41.9 247.2 43.2 248.3 43.2 245.9 48.7 243.6 43.2 244.7 43.2 244.8 41.9 240.6 41.9 240.6 43.2 241.4 43.2 244.8 51.4 246 51.4 249.7 43.2 250.5 43.2 250.5 41.9 247.2 41.9"/><path class="cls-1" d="M230.3,51.4V50.2h1.3V45.1c0-1-.3-1.7-1.2-1.7a3.3,3.3,0,0,0-2.5,1.3v5.5h1.2v1.2h-4.5V50.2h1.2v-7h-1.2V41.9h3.3v1.2a4.2,4.2,0,0,1,3-1.5c1.9,0,2.7,1.2,2.7,3.1v5.4h1.3v1.2Z"/><rect class="cls-1" x="237.1" y="38.6" width="2.1" height="2.09"/><polygon class="cls-1" points="239.2 50.2 239.2 41.9 235.9 41.9 235.9 43.2 237.1 43.2 237.1 50.2 235.9 50.2 235.9 51.4 240.4 51.4 240.4 50.2 239.2 50.2"/><rect class="cls-1" x="277.3" y="38.6" width="2.1" height="2.09"/><polygon class="cls-1" points="279.3 50.2 279.3 41.9 276 41.9 276 43.2 277.3 43.2 277.3 50.2 276 50.2 276 51.4 280.6 51.4 280.6 50.2 279.3 50.2"/><path class="cls-1" d="M147.7,41.9v1.3h1.2v5.5a3.6,3.6,0,0,1-2.5,1.3c-.9,0-1.2-.8-1.2-1.7V41.9h-3.3v1.3h1.3v5.3c0,2,.8,3.1,2.6,3.1a4.2,4.2,0,0,0,3.1-1.5v1.3h3.3V50.2H151V41.9Z"/><path class="cls-1" d="M158.8,51.4V50.2H160V45.1c0-1-.2-1.7-1.2-1.7a3.3,3.3,0,0,0-2.5,1.3v5.5h1.2v1.2H153V50.2h1.2v-7H153V41.9h3.3v1.2a4.2,4.2,0,0,1,3.1-1.5c1.8,0,2.7,1.2,2.7,3.1v5.4h1.2v1.2Z"/><path class="cls-1" d="M179.2,51.4V50.2h1.3V45.1c0-1-.3-1.7-1.2-1.7a3.3,3.3,0,0,0-2.5,1.3v5.5H178v1.2h-4.5V50.2h1.2v-7h-1.2V41.9h3.3v1.2a4.2,4.2,0,0,1,3-1.5c1.9,0,2.7,1.2,2.7,3.1v5.4h1.3v1.2Z"/><path class="cls-1" d="M207.8,50.2V44.6c0-1.5-.7-2.9-2.6-2.9a3.9,3.9,0,0,0-3.1,1.8,2.4,2.4,0,0,0-2.4-1.8,4,4,0,0,0-3,1.5V42h-3.3v1.3h1.2v7h-1.2v1.2h4.5V50.2h-1.2V44.7a3.4,3.4,0,0,1,2.4-1.3c.8,0,1.1.4,1.1,1.4v5.4h-1.3v1.2h4.6V50.2h-1.3V44.7a3.6,3.6,0,0,1,2.5-1.3c.8,0,1,.4,1,1.4v5.4h-1.2v1.2H209V50.2Z"/><path class="cls-1" d="M192.7,50.1h-.5c-.3,0-.6-.3-.6-1V44.7a3,3,0,0,0-3.2-3,6.7,6.7,0,0,0-3.4.9v2h1.3v-1a1.9,1.9,0,0,1,1.6-.7c1,.1,1.5.6,1.5,1.8v1h-.4c-2.6-.1-4.8,1.1-4.8,3.2a2.6,2.6,0,0,0,2.9,2.7,3.3,3.3,0,0,0,2.7-1.1,1.8,1.8,0,0,0,1.6,1,3.2,3.2,0,0,0,1.4-.3Zm-3.2-.7a2.5,2.5,0,0,1-1.7.7,1.4,1.4,0,0,1-1.4-1.5c0-1,1.2-1.7,2.7-1.7h.4Z"/><path class="cls-1" d="M169.3,49.7H167c-.7,0-.8-.5-.5-.9s.4-.3.6-.4h.6c2.2,0,3.6-1.1,3.6-3.4a4.8,4.8,0,0,0-.4-1.8l1.3.2.7-1.7-3.4.3a4.8,4.8,0,0,0-1.8-.3c-2.2,0-3.6,1-3.6,3.3a3,3,0,0,0,1.7,3c-.7.2-1.5.8-1.5,1.6a1.5,1.5,0,0,0,.7,1.2,1.7,1.7,0,0,0-1.6,1.7c0,1.4,1.6,2.4,4.6,2.4s4.6-1,4.6-2.8S171.5,49.7,169.3,49.7Zm-1.6-6.8c1,0,1.5.6,1.5,2.2s-.5,2.3-1.5,2.3-1.5-.6-1.5-2.3S166.7,42.9,167.7,42.9Zm.4,10.9c-1.6,0-2.6-.5-2.6-1.4a1.1,1.1,0,0,1,.9-1.1H169c1.1,0,1.5.5,1.5,1S169.6,53.8,168.1,53.8Z"/><path class="cls-1" d="M141.1,49.4a4.5,4.5,0,0,1-2.4.7c-2.2,0-2.8-1.6-2.9-3.4h5.7v-.5c0-1.9-.7-4.5-3.6-4.5s-4.2,2.4-4.2,4.9,1.6,5,4.6,5a4.2,4.2,0,0,0,2.8-.8Zm-5.1-4c.1-1.4.6-2.4,1.8-2.4s1.5.7,1.5,2.4Z"/><polygon class="cls-1" points="134.1 39.9 135.1 39.9 135.1 38.6 131.5 38.6 131.5 39.9 132.6 39.9 130 45.2 127.5 39.9 128.6 39.9 128.6 38.6 124 38.6 123.9 39.9 125 39.9 128.5 47 128.5 50.2 127.3 50.2 127.3 51.4 131.9 51.4 131.9 50.2 130.6 50.2 130.6 46.8 134.1 39.9"/></g></g></svg>